# xmcd
#
# Track frame offsets: 
#        150
#        23873
#        39370
#
# Disc length: 957 seconds
#
# Revision: 0
# Processed by: cddbd v1.5.1PL2 Copyright (c) Steve Scherf et al.
# Submitted via: ExactAudioCopy v0.95b3
#
DISCID=1903bb03
DTITLE=Back Door Slam - live down the pub
DYEAR=2006
DGENRE=Blues
TTITLE0=city
TTITLE1=too long too late
TTITLE2=freebird
EXTD=
EXTT0=
EXTT1=
EXTT2=
PLAYORDER=
